<svg width="454" height="440" viewBox="0 0 454 440" fill="none" xmlns="http://www.w3.org/2000/svg">
<path d="M245.5 91.5H316.5L280 152.5L245.5 91.5Z" fill="#FFA733"/>
<path d="M88.5 298H192.5L138 387L88.5 298Z" fill="#115B83"/>
<path d="M45 223L148.5 221L88.5 298L45 223Z" fill="#0292FB"/>
<path d="M280 152.5L201 165L235.5 225L280 152.5Z" fill="#FFD988"/>
<path d="M245.5 91.5L201 165L280 152.5L245.5 91.5Z" fill="#FFBC65"/>
<path d="M192.5 298L271.5 279.5L225.5 354L192.5 298Z" fill="#09BBDF"/>
<path d="M0 144H104.5L45 223L0 144Z" fill="#56E3FF"/>
<path d="M104.5 144L148.5 221L45 223L104.5 144Z" fill="#09BBDF"/>
<path d="M148.5 221L192.5 298H88.5L148.5 221Z" fill="#2878B2"/>
<path d="M201 165L235.5 225L157.5 237L201 165Z" fill="#02A42D"/>
<path d="M192.5 298L157.5 237L235.5 225L192.5 298Z" fill="#7BC280"/>
<path d="M235.5 225L271.5 279.5L192.5 298L235.5 225Z" fill="#02A42D"/>
<path d="M271.5 279.5L235.5 225L315.5 208.5L271.5 279.5Z" fill="#FFD988"/>
<path d="M280 152.5H348.5L315.5 208.5L235.5 225L280 152.5Z" fill="#E9C01B"/>
<path d="M171.5 439.5L138 387L225.5 354L171.5 439.5Z" fill="#CF0D68" fill-opacity="0.96"/>
<path d="M138 387L225.5 354L192.5 298L138 387Z" fill="#900C1A" fill-opacity="0.85"/>
<path d="M359 105.5L372 114L404.5 97L378 137H340L359 105.5Z" fill="#D00003"/>
<path d="M411 87.5L447.5 66L437 87.5H411Z" fill="#A67C8A"/>
<path d="M428.5 108H454L439.5 137.5H409L428.5 108Z" fill="black"/>
<path d="M351 78.5L396.5 70L364 87L351 78.5Z" fill="#D4AF37"/>
<path d="M329.5 30H366.5L357.5 51L312 59.5L329.5 30Z" fill="#0170C1"/>
<path d="M399 0H404.5L390 21L399 0Z" fill="#FFA733"/>
<path d="M411.5 28H431.5L426.5 38.5L390 59.5L403 40L411.5 28Z" fill="#02A42D"/>
</svg>
